<svg width="48" height="48" viewBox="0 0 48 48" fill="none" xmlns="http://www.w3.org/2000/svg">
<path d="M23.971 35.016H26.233L26.959 38.431H23.624" stroke="white" stroke-width="2" stroke-linecap="round" stroke-linejoin="round"/>
<path d="M42.158 31.771L30.588 31.984L26.233 35.016L26.617 16.784L29.008 10.85L40.621 6.239L42.5 11.96L40.792 18.706L40.963 22.121L39.853 23.759L42.158 31.771ZM42.158 31.771L40.066 40.267L31.527 37.62L26.959 41.761H23.971M39.853 23.759L31.698 21.353M40.792 18.706L42.286 18.45M42.286 20.328L40.882 20.499M26.439 25.244L34.388 25.067" stroke="white" stroke-width="2" stroke-linecap="round" stroke-linejoin="round"/>
<path d="M35.647 31.891L31.527 37.62L30.588 31.984L34.388 25.067L31.698 21.353L26.617 16.784L40.621 6.239M26.233 35.016L31.527 37.62" stroke="white" stroke-width="2" stroke-linecap="round" stroke-linejoin="round"/>
<path d="M29.008 10.85H23.971M24.029 35.016H21.767L21.041 38.431H23.624M27.45 29.663L30.636 28.478L28.362 27.293L27.45 29.663V29.663Z" stroke="white" stroke-width="2" stroke-linecap="round" stroke-linejoin="round"/>
<path d="M5.842 31.771L17.412 31.984L21.767 35.016L21.383 16.784L18.992 10.85L7.379 6.239L5.5 11.96L7.208 18.706L7.037 22.121L8.147 23.759L5.842 31.771L7.934 40.267L16.473 37.62L21.041 41.761H24.029M8.147 23.759L16.302 21.353M7.208 18.706L5.713 18.45M5.713 20.328L7.118 20.499M21.561 25.244L13.612 25.067" stroke="white" stroke-width="2" stroke-linecap="round" stroke-linejoin="round"/>
<path d="M12.353 31.891L16.473 37.62L17.412 31.984L13.612 25.067L16.302 21.353L21.383 16.784L7.37903 6.239M21.767 35.016L16.473 37.62" stroke="white" stroke-width="2" stroke-linecap="round" stroke-linejoin="round"/>
<path d="M18.992 10.85H24.029M20.55 29.663L17.364 28.478L19.638 27.293L20.55 29.663V29.663Z" stroke="white" stroke-width="2" stroke-linecap="round" stroke-linejoin="round"/>
</svg>
